<svg xmlns="http://www.w3.org/2000/svg" viewBox="0 0 512 512"><defs><linearGradient id="b" x1="0" y1="0" x2="1" y2="1"><stop stop-color="#eef3eb"/><stop offset="1" stop-color="#c9d7d1"/></linearGradient><linearGradient id="g" x1="0" y1="0" x2="0" y2="1"><stop stop-color="#e8c36f"/><stop offset="1" stop-color="#a87228"/></linearGradient></defs><rect width="512" height="512" rx="86" fill="url(#b)"/><path d="M143 91h226c34 0 61 27 61 61v197c0 30-24 54-54 54H136c-30 0-54-24-54-54V152c0-34 27-61 61-61Z" fill="#276c61" stroke="#263b38" stroke-width="16"/><path d="M121 144h270v127H121z" fill="#dceff0" stroke="#263b38" stroke-width="14"/><path d="M256 144v127" stroke="#263b38" stroke-width="12"/><circle cx="154" cy="331" r="24" fill="url(#g)"/><circle cx="358" cy="331" r="24" fill="url(#g)"/><path d="M137 403 94 459m281-56 43 56M160 445h192" stroke="#263b38" stroke-width="20" stroke-linecap="round"/><path d="M171 72h170" stroke="url(#g)" stroke-width="22" stroke-linecap="round"/></svg>
