<svg xmlns="http://www.w3.org/2000/svg" viewBox="0 0 1200 800" role="img" aria-labelledby="title desc">
  <title id="title">Mechanic entrance challenge</title>
  <desc id="desc">Crossed wrench and screwdriver on an industrial workshop badge</desc>
  <defs>
    <linearGradient id="bg" x1="0" y1="0" x2="1" y2="1">
      <stop offset="0" stop-color="#101820"/>
      <stop offset=".58" stop-color="#27333b"/>
      <stop offset="1" stop-color="#182128"/>
    </linearGradient>
    <linearGradient id="metal" x1="0" y1="0" x2="1" y2="1">
      <stop offset="0" stop-color="#fff8dd"/>
      <stop offset=".48" stop-color="#d8d3c5"/>
      <stop offset="1" stop-color="#8e9699"/>
    </linearGradient>
    <linearGradient id="orange" x1="0" y1="0" x2="0" y2="1">
      <stop offset="0" stop-color="#f6ab42"/>
      <stop offset="1" stop-color="#d26b16"/>
    </linearGradient>
    <pattern id="grid" width="56" height="56" patternUnits="userSpaceOnUse">
      <path d="M56 0H0v56" fill="none" stroke="#f4c542" stroke-opacity=".08" stroke-width="2"/>
    </pattern>
    <filter id="shadow" x="-30%" y="-30%" width="160%" height="170%">
      <feDropShadow dx="0" dy="22" stdDeviation="18" flood-color="#000" flood-opacity=".38"/>
    </filter>
  </defs>
  <rect width="1200" height="800" rx="54" fill="url(#bg)"/>
  <rect width="1200" height="800" rx="54" fill="url(#grid)"/>
  <path d="M0 122h1200M0 678h1200" stroke="#e58a22" stroke-width="12"/>
  <g fill="#f4c542" opacity=".7">
    <path d="m76 122 38-38h42l-38 38zm88 0 38-38h42l-38 38zm88 0 38-38h42l-38 38zm656 0 38-38h42l-38 38zm88 0 38-38h42l-38 38zm88 0 38-38h42l-38 38z"/>
  </g>
  <g filter="url(#shadow)">
    <path d="M600 160 850 260v280L600 640 350 540V260l250-100Z" fill="#182128" stroke="#f4c542" stroke-width="18"/>
    <path d="M600 195 818 281v238L600 605 382 519V281l218-86Z" fill="#27333b" stroke="#e58a22" stroke-width="6"/>
    <circle cx="600" cy="400" r="151" fill="#101820" stroke="#f4c542" stroke-width="8" stroke-dasharray="18 14"/>
  </g>
  <g transform="translate(600 400)" stroke-linecap="round" stroke-linejoin="round">
    <g transform="rotate(-43)">
      <path d="M-33-206c31-10 64 0 84 25l-51 50 26 26 51-50c17 34 5 76-28 96-20 12-43 15-64 8L-27 162c-3 31-34 49-62 36-20-9-31-31-26-52l56-209c-23-24-30-61-15-93 9-23 24-40 41-50Z" fill="url(#metal)" stroke="#101820" stroke-width="10"/>
      <circle cx="-72" cy="157" r="17" fill="#101820"/>
    </g>
    <g transform="rotate(43)">
      <path d="M-20-214h40l15 69-12 33v240h-46v-240l-12-33 15-69Z" fill="url(#orange)" stroke="#101820" stroke-width="10"/>
      <path d="M-23 128h46v65c0 13-10 23-23 23s-23-10-23-23v-65Z" fill="#f4c542" stroke="#101820" stroke-width="10"/>
      <path d="M0-211v95" stroke="#fff4cf" stroke-width="9" opacity=".55"/>
    </g>
    <circle r="42" fill="#f4c542" stroke="#101820" stroke-width="12"/>
    <circle r="17" fill="#e58a22"/>
  </g>
  <text x="600" y="735" fill="#fff9e6" font-family="Arial, Helvetica, sans-serif" font-size="48" font-weight="900" text-anchor="middle" letter-spacing="7">WORKSHOP CHALLENGE</text>
</svg>
