<svg xmlns="http://www.w3.org/2000/svg" viewBox="0 0 480 300" width="480" height="300"><rect width="480" height="300" rx="18" fill="#f1f7fa"/><g transform="translate(124 76) scale(1)" data-panel="Top left"><rect x="-102" y="-62" width="204" height="124" fill="#ffffff" rx="12" stroke="#b8ccd8" stroke-width="2"/><g data-symbol="key:right"><g transform="scale(1 1)" stroke="#163654" stroke-width="8" fill="none" stroke-linecap="round" stroke-linejoin="round"><circle cx="0" cy="-23" r="15"/><path d="M0 -8V37M0 17H20M0 34H20"/></g></g></g><g transform="translate(356 76) scale(1)" data-panel="Top right"><rect x="-102" y="-62" width="204" height="124" fill="#ffffff" rx="12" stroke="#b8ccd8" stroke-width="2"/><g data-symbol="key:right"><g transform="scale(1 1)" stroke="#163654" stroke-width="8" fill="none" stroke-linecap="round" stroke-linejoin="round"><circle cx="0" cy="-23" r="15"/><path d="M0 -8V37M0 17H20M0 34H20"/></g></g></g><g transform="translate(124 224) scale(1)" data-panel="Bottom left"><rect x="-102" y="-62" width="204" height="124" fill="#ffffff" rx="12" stroke="#b8ccd8" stroke-width="2"/><g data-symbol="key:right"><g transform="scale(1 1)" stroke="#163654" stroke-width="8" fill="none" stroke-linecap="round" stroke-linejoin="round"><circle cx="0" cy="-23" r="15"/><path d="M0 -8V37M0 17H20M0 34H20"/></g></g></g><g transform="translate(356 224) scale(1)" data-panel="Bottom right"><rect x="-102" y="-62" width="204" height="124" fill="#ffffff" rx="12" stroke="#b8ccd8" stroke-width="2"/><g data-symbol="key:left"><g transform="scale(-1 1)" stroke="#163654" stroke-width="8" fill="none" stroke-linecap="round" stroke-linejoin="round"><circle cx="0" cy="-23" r="15"/><path d="M0 -8V37M0 17H20M0 34H20"/></g></g></g></svg>
