<svg xmlns="http://www.w3.org/2000/svg" viewBox="0 0 480 300" width="480" height="300"><rect width="480" height="300" rx="18" fill="#f1f7fa"/><g transform="translate(124 76) scale(1)" data-panel="Top left"><rect x="-102" y="-62" width="204" height="124" fill="#ffffff" rx="12" stroke="#b8ccd8" stroke-width="2"/><g data-symbol="arrow:45"><g transform="rotate(45)"><path d="M0 -40 30 -8H12V36H-12V-8H-30Z" fill="#163654"/></g></g></g><g transform="translate(356 76) scale(1)" data-panel="Top right"><rect x="-102" y="-62" width="204" height="124" fill="#ffffff" rx="12" stroke="#b8ccd8" stroke-width="2"/><g data-symbol="arrow:45"><g transform="rotate(45)"><path d="M0 -40 30 -8H12V36H-12V-8H-30Z" fill="#163654"/></g></g></g><g transform="translate(124 224) scale(1)" data-panel="Bottom left"><rect x="-102" y="-62" width="204" height="124" fill="#ffffff" rx="12" stroke="#b8ccd8" stroke-width="2"/><g data-symbol="arrow:45"><g transform="rotate(45)"><path d="M0 -40 30 -8H12V36H-12V-8H-30Z" fill="#163654"/></g></g></g><g transform="translate(356 224) scale(1)" data-panel="Bottom right"><rect x="-102" y="-62" width="204" height="124" fill="#ffffff" rx="12" stroke="#b8ccd8" stroke-width="2"/><g data-symbol="arrow:135"><g transform="rotate(135)"><path d="M0 -40 30 -8H12V36H-12V-8H-30Z" fill="#163654"/></g></g></g></svg>
