<svg xmlns="http://www.w3.org/2000/svg" viewBox="0 0 480 300" width="480" height="300"><rect width="480" height="300" rx="18" fill="#f1f7fa"/><g transform="translate(124 76) scale(1)" data-panel="Top left"><rect x="-102" y="-62" width="204" height="124" fill="#ffffff" rx="12" stroke="#b8ccd8" stroke-width="2"/><rect x="-78" y="-43" width="72" height="86" fill="#467f97" rx="6"/><rect x="6" y="-43" width="72" height="86" fill="#467f97" rx="6"/></g><g transform="translate(356 76) scale(1)" data-panel="Top right"><rect x="-102" y="-62" width="204" height="124" fill="#ffffff" rx="12" stroke="#b8ccd8" stroke-width="2"/><rect x="-78" y="-43" width="72" height="86" fill="#527c95" rx="6"/><rect x="6" y="-43" width="72" height="86" fill="#406982" rx="6"/></g><g transform="translate(124 224) scale(1)" data-panel="Bottom left"><rect x="-102" y="-62" width="204" height="124" fill="#ffffff" rx="12" stroke="#b8ccd8" stroke-width="2"/><rect x="-78" y="-43" width="72" height="86" fill="#32667e" rx="6"/><rect x="6" y="-43" width="72" height="86" fill="#4b8299" rx="6"/></g><g transform="translate(356 224) scale(1)" data-panel="Bottom right"><rect x="-102" y="-62" width="204" height="124" fill="#ffffff" rx="12" stroke="#b8ccd8" stroke-width="2"/><rect x="-78" y="-43" width="72" height="86" fill="#467794" rx="6"/><rect x="6" y="-43" width="72" height="86" fill="#6293b0" rx="6"/></g></svg>
