<svg xmlns="http://www.w3.org/2000/svg" viewBox="0 0 512 512"><defs><linearGradient id="b" x1="0" y1="0" x2="1" y2="1"><stop stop-color="#f5eee4"/><stop offset="1" stop-color="#dbcabe"/></linearGradient><linearGradient id="g" x1="0" y1="0" x2="0" y2="1"><stop stop-color="#ebcf8b"/><stop offset="1" stop-color="#9e7130"/></linearGradient></defs><rect width="512" height="512" rx="86" fill="url(#b)"/><path d="M256 86v313M170 128h172" stroke="#40233a" stroke-width="24" stroke-linecap="round"/><path d="m173 140-75 137h150L173 140Zm166 0-75 137h150L339 140Z" fill="none" stroke="url(#g)" stroke-width="18" stroke-linejoin="round"/><path d="M79 279h188c-10 52-46 78-94 78s-84-26-94-78Zm166 0h188c-10 52-46 78-94 78s-84-26-94-78Z" fill="#642c52" stroke="#40233a" stroke-width="12"/><path d="M164 407h184" stroke="url(#g)" stroke-width="26" stroke-linecap="round"/></svg>
